<?xml version="1.0" encoding="UTF-8" standalone="no"?>
<svg
   xmlns:dc="http://purl.org/dc/elements/1.1/"
   xmlns:cc="http://creativecommons.org/ns#"
   xmlns:rdf="http://www.w3.org/1999/02/22-rdf-syntax-ns#"
   xmlns:svg="http://www.w3.org/2000/svg"
   xmlns="http://www.w3.org/2000/svg"
   xmlns:sodipodi="http://sodipodi.sourceforge.net/DTD/sodipodi-0.dtd"
   xmlns:inkscape="http://www.inkscape.org/namespaces/inkscape"
   height="292.26828"
   width="285.48532"
   xml:space="preserve"
   version="1.1"
   style="clip-rule:evenodd;fill:#000000;fill-rule:evenodd;image-rendering:optimizeQuality;shape-rendering:geometricPrecision;text-rendering:geometricPrecision"
   viewBox="0 0 565.26094 704.36655"
   x="0px"
   y="0px"
   id="svg3764"
   inkscape:version="0.91 r13725"
   sodipodi:docname="hearted-boxingglove.svg"><metadata
     id="metadata3776"><rdf:RDF><cc:Work
         rdf:about=""><dc:format>image/svg+xml</dc:format><dc:type
           rdf:resource="http://purl.org/dc/dcmitype/StillImage" /><dc:title /></cc:Work></rdf:RDF></metadata><sodipodi:namedview
     pagecolor="#ffffff"
     bordercolor="#666666"
     borderopacity="1"
     objecttolerance="10"
     gridtolerance="10"
     guidetolerance="10"
     inkscape:pageopacity="0"
     inkscape:pageshadow="2"
     inkscape:window-width="1416"
     inkscape:window-height="781"
     id="namedview3774"
     showgrid="false"
     inkscape:zoom="0.78666667"
     inkscape:cx="-154.87682"
     inkscape:cy="161.90948"
     inkscape:window-x="243"
     inkscape:window-y="97"
     inkscape:window-maximized="0"
     inkscape:current-layer="svg3764"
     fit-margin-top="0"
     fit-margin-left="0"
     fit-margin-right="0"
     fit-margin-bottom="0" /><defs
     id="defs3766"><style
       type="text/css"
       id="style3768">
   
    .fil0 {fill:#000000}
   
  </style></defs><g
     id="g3770"
     transform="matrix(0.70555476,0.70865535,-0.70865545,0.70555476,280.61024,-151.34672)"><path
       class="fil0"
       d="M 541,574 C 475,605 364,610 306,593 451,572 538,589 575,422 586,334 622,126 549,63 488,-7 244,-35 148,66 63,145 104,312 135,405 101,377 73,309 82,234 c -186,28 -12,324 105,348 1,4 -11,128 62,135 0,4 115,5 194,6 93,0 93,-70 98,-149 z"
       id="path3772"
       inkscape:connector-curvature="0"
       style="fill:#000000" /></g><ellipse
     style="fill:#f9f9f9;fill-opacity:1;stroke:#000000;stroke-width:11.37728214;stroke-linejoin:miter;stroke-miterlimit:4;stroke-dasharray:none;stroke-opacity:1"
     id="path3805"
     cx="350.38831"
     cy="262.0842"
     rx="163.91002"
     ry="163.91" /><g
     transform="matrix(3.6184247,0,0,3.6184244,169.46708,90.916435)"
     id="g3570"
     style="fill:#9e45c5;fill-opacity:1"><polygon
       points="52.5,77.5 57.5,77.5 57.5,72.5 62.5,72.5 62.5,67.5 67.5,67.5 67.5,62.5 72.5,62.5 72.5,57.5 77.5,57.5 77.5,52.5 77.5,47.5 82.5,47.5 82.5,42.5 82.5,37.5 82.5,32.5 82.5,27.5 77.5,27.5 77.5,22.5 72.5,22.5 72.5,17.5 67.5,17.5 62.5,17.5 62.5,22.5 57.5,22.5 57.5,27.5 52.5,27.5 52.5,32.5 47.5,32.5 47.5,27.5 42.5,27.5 42.5,22.5 37.5,22.5 37.5,17.5 32.5,17.5 27.5,17.5 27.5,22.5 22.5,22.5 22.5,27.5 17.5,27.5 17.5,32.5 17.5,37.5 17.5,42.5 17.5,47.5 22.5,47.5 22.5,52.5 22.5,57.5 27.5,57.5 27.5,62.5 32.5,62.5 32.5,67.5 37.5,67.5 37.5,72.5 42.5,72.5 42.5,77.5 47.5,77.5 47.5,82.5 52.5,82.5 "
       id="polygon3572"
       style="fill:#9e45c5;fill-opacity:1" /></g></svg>