<svg height='300px' width='300px'  fill="#000000" xmlns="http://www.w3.org/2000/svg" xmlns:xlink="http://www.w3.org/1999/xlink" version="1.1" x="0px" y="0px" viewBox="0 0 100 100" enable-background="new 0 0 100 100" xml:space="preserve"><g><g><g><path d="M49.891,65.818c2.673,0,4.8,2.127,4.8,4.745c0,2.673-2.127,4.8-4.8,4.8c-2.618,0-4.745-2.127-4.745-4.8     C45.145,67.945,47.273,65.818,49.891,65.818z"></path><path d="M49.945,60.145c-2.4,0-4.527,0.709-6.436,2.073c-1.855,1.309-4.418,0.873-5.727-0.982     c-1.309-1.8-0.873-4.364,0.982-5.673c3.164-2.291,7.036-3.6,11.182-3.6s8.018,1.309,11.182,3.6     c1.855,1.309,2.236,3.873,0.927,5.727c-1.309,1.8-3.873,2.236-5.727,0.927C54.527,60.909,52.345,60.145,49.945,60.145z"></path><path d="M45.8,48.036c-3.6,0.655-6.873,2.236-9.764,4.473c-1.8,1.418-4.364,1.091-5.782-0.709     c-1.364-1.745-1.036-4.309,0.764-5.727c3.818-3,8.345-5.127,13.309-6.109h0.055c1.8-0.273,3.6-0.491,5.564-0.491     c7.036,0,13.636,2.509,18.927,6.709c1.745,1.364,2.018,3.982,0.655,5.727c-1.418,1.745-3.982,2.073-5.782,0.655     c-3.927-3.109-8.673-4.909-13.8-4.909c-1.418,0-2.727,0.164-4.091,0.382H45.8z"></path><path d="M49.945,35.109c-4.582,0-8.891,0.927-12.818,2.564c-3.164,1.309-6.109,3.055-8.673,5.236     c-1.745,1.418-4.309,1.2-5.782-0.545c-1.418-1.745-1.2-4.309,0.545-5.782c3.218-2.673,6.818-4.855,10.745-6.491     c4.964-2.073,10.364-3.164,15.982-3.164c10.036,0,19.309,3.6,26.618,9.655c1.745,1.418,2.018,4.036,0.545,5.782     c-1.418,1.745-3.982,1.964-5.727,0.545C65.436,38,58.018,35.109,49.945,35.109z"></path><path d="M5,50C5,25.127,25.127,5,50,5c24.818,0,45,20.127,45,45S74.818,95,50,95C25.127,95,5,74.873,5,50z M50,13.182     c-10.2,0-19.364,4.091-26.073,10.8C17.273,30.636,13.182,39.8,13.182,50s4.091,19.364,10.745,26.018     c6.709,6.709,15.873,10.8,26.073,10.8c10.145,0,19.364-4.091,26.018-10.8c6.655-6.655,10.8-15.818,10.8-26.018     s-4.145-19.364-10.8-26.018C69.364,17.273,60.145,13.182,50,13.182z"></path></g></g></g></svg>